<?xml version="1.0" encoding="UTF-8" standalone="no"?>
<svg
   xmlns:dc="http://purl.org/dc/elements/1.1/"
   xmlns:cc="http://creativecommons.org/ns#"
   xmlns:rdf="http://www.w3.org/1999/02/22-rdf-syntax-ns#"
   xmlns:svg="http://www.w3.org/2000/svg"
   xmlns="http://www.w3.org/2000/svg"
   viewBox="0 0 576.22266 489.27066"
   height="489.27066"
   width="576.22266"
   xml:space="preserve"
   id="svg2"
   version="1.1"><metadata
     id="metadata8"><rdf:RDF><cc:Work
         rdf:about=""><dc:format>image/svg+xml</dc:format><dc:type
           rdf:resource="http://purl.org/dc/dcmitype/StillImage" /></cc:Work></rdf:RDF></metadata><defs
     id="defs6"><clipPath
       id="clipPath20"
       clipPathUnits="userSpaceOnUse"><path
         id="path18"
         d="M 0,366.953 H 432.167 V 0 H 0 Z" /></clipPath><clipPath
       id="clipPath32"
       clipPathUnits="userSpaceOnUse"><path
         id="path30"
         d="M 0,366.953 H 432.167 V 0 H 0 Z" /></clipPath></defs><g
     transform="matrix(1.3333333,0,0,-1.3333333,0,489.27067)"
     id="g10"><path
       id="path12"
       style="fill:#bbbdbf;fill-opacity:1;fill-rule:nonzero;stroke:none"
       d="M 266.833,20.333 H 165.5 v 47.811 h 101.333 z" /><g
       id="g14"><g
         clip-path="url(#clipPath20)"
         id="g16"><g
           transform="translate(289.125,12.3477)"
           id="g22"><path
             id="path24"
             style="fill:#d0d2d3;fill-opacity:1;fill-rule:nonzero;stroke:none"
             d="m 0,0 c 0,-6.819 -5.528,-12.348 -12.348,-12.348 h -121.387 c -6.82,0 -12.348,5.529 -12.348,12.348 v 3.781 c 0,6.819 5.528,12.348 12.348,12.348 H -12.348 C -5.528,16.129 0,10.6 0,3.781 Z" /></g></g></g><g
       id="g26"><g
         clip-path="url(#clipPath32)"
         id="g28"><g
           transform="translate(24.6953,68)"
           id="g34"><path
             id="path36"
             style="fill:#e6e6e6;fill-opacity:1;fill-rule:nonzero;stroke:none"
             d="m 0,0 c -9.206,0 -16.695,7.489 -16.695,16.695 v 257.562 c 0,9.206 7.489,16.696 16.695,16.696 h 382.776 c 9.206,0 16.696,-7.49 16.696,-16.696 V 16.695 C 399.472,7.489 391.982,0 382.776,0 Z" /></g><g
           transform="translate(407.4717,366.9526)"
           id="g38"><path
             id="path40"
             style="fill:#d0d2d3;fill-opacity:1;fill-rule:nonzero;stroke:none"
             d="m 0,0 h -382.776 c -13.638,0 -24.696,-11.058 -24.696,-24.695 v -257.562 c 0,-13.639 11.058,-24.696 24.696,-24.696 H 0 c 13.639,0 24.695,11.057 24.695,24.696 V -24.695 C 24.695,-11.058 13.639,0 0,0 m 0,-16 c 4.795,0 8.695,-3.901 8.695,-8.695 v -257.562 c 0,-4.795 -3.9,-8.696 -8.695,-8.696 h -382.776 c -4.795,0 -8.696,3.901 -8.696,8.696 v 257.562 c 0,4.794 3.901,8.695 8.696,8.695 L 0,-16" /></g></g></g><path
       id="path42"
       style="fill:#ffffff;fill-opacity:1;fill-rule:nonzero;stroke:none"
       d="M 53,323.953 H 379.167 V 103 L 53,103 Z" /><path
       id="path44"
       style="fill:#bbbdbf;fill-opacity:1;fill-rule:nonzero;stroke:none"
       d="M 382.167,326.953 H 50 V 100 H 382.167 Z M 376.167,106 H 56 v 214.953 h 320.167 z" /><path
       id="path46"
       style="fill:#6d6e70;fill-opacity:1;fill-rule:nonzero;stroke:none"
       d="m 342.167,127.477 h -60 v 32 h 60 z" /><path
       id="path48"
       style="fill:#d0d2d3;fill-opacity:1;fill-rule:nonzero;stroke:none"
       d="m 270.167,127.477 h -180 v 12 h 180 z" /><path
       id="path50"
       style="fill:#d0d2d3;fill-opacity:1;fill-rule:nonzero;stroke:none"
       d="m 270.167,147.477 h -180 v 12 h 180 z" /><path
       id="path52"
       style="fill:#929497;fill-opacity:1;fill-rule:nonzero;stroke:none"
       d="m 342.167,174.977 h -252 v 18.5 h 252 z" /><path
       id="path54"
       style="fill:#d0d2d3;fill-opacity:1;fill-rule:nonzero;stroke:none"
       d="m 342.167,211.477 h -126 v 12 h 126 z" /><path
       id="path56"
       style="fill:#d0d2d3;fill-opacity:1;fill-rule:nonzero;stroke:none"
       d="m 342.167,231.477 h -126 v 12 h 126 z" /><path
       id="path58"
       style="fill:#d0d2d3;fill-opacity:1;fill-rule:nonzero;stroke:none"
       d="m 342.167,251.477 h -126 v 12 h 126 z" /><path
       id="path60"
       style="fill:#929497;fill-opacity:1;fill-rule:nonzero;stroke:none"
       d="m 342.167,283.477 h -126 v 18 h 126 z" /><path
       id="path62"
       style="fill:#6d6e70;fill-opacity:1;fill-rule:nonzero;stroke:none"
       d="m 204.167,211.477 h -114 v 90 h 114 z" /><g
       transform="translate(160.2266,127.083)"
       id="g64"><path
         id="path66"
         style="fill:#58595b;fill-opacity:1;fill-rule:nonzero;stroke:none"
         d="M 0,0 V 0 L -8.199,16.432 8.039,19.24 -30.368,48.044 V 0.033 l 11.987,11.305 8.193,-16.432 z" /></g></g></svg>
